<svg class="svg-icon" style="width: 1em; height: 1em;vertical-align: middle;fill: currentColor;overflow: hidden;" viewBox="0 0 1024 1024" version="1.1" xmlns="http://www.w3.org/2000/svg"><path d="M512 129.94444444h-0.36736111H511.08159723c-210.68159723 0.55104167-381.13715277 171.37395833-381.13715279 382.05555556s170.45555556 381.50451389 381.13715279 382.05555556h0.91840277c211.04895833 0 382.05555556-171.00659723 382.05555556-382.05555556S723.04895833 129.94444444 512 129.94444444z m15.24548611 228.68229167c40.59340277-1.10208333 79.90104167-6.42881944 117.92291666-15.61284722 11.38819444 45.00173611 18.55173611 96.98333333 19.65381946 153.92430555H527.24548611V358.62673611z m0-30.67465278V163.00694444c41.14444444 11.38819444 83.02361111 66.30868056 109.47361112 150.61805556-35.26666667 8.44930556-71.81909723 13.225-109.47361112 14.32708333z m-30.49097222-165.3125v165.49618056c-38.021875-1.10208333-74.94166667-6.06145833-110.39201389-14.69444445 26.81736111-84.86041667 68.88020833-140.14826389 110.39201389-150.80173611z m0 195.98715278v138.12777778H358.259375c1.10208333-56.94097223 8.265625-108.92256944 19.65381944-153.92430556 38.20555556 9.18402777 78.06423611 14.69444444 118.84131945 15.79652778zM327.40104167 496.75451389H160.98645833c3.30625-78.61527777 32.69513889-150.61805556 79.53368056-207.55902778 33.98090277 18.73541667 70.16597223 34.16458333 108.00416667 45.55277778-12.49027777 48.67534723-19.8375 103.59583333-21.12326389 162.00625z m0 30.49097222c1.10208333 58.22673611 8.44930556 113.33090277 20.93958333 162.00625a571.99043402 571.99043402 0 0 0-108.00416667 45.55277778c-46.83854167-56.94097223-76.04375-128.94375-79.53368056-207.55902778H327.40104167z m30.85833333 0h138.49513889v137.94409722C455.97743056 666.29166667 416.11875 671.80208333 377.91319444 681.16979167c-11.38819444-45.00173611-18.55173611-96.98333333-19.65381944-153.92430556z m138.49513889 168.61875v165.67986112c-41.51180556-10.83715277-83.57465277-65.94131944-110.39201389-150.80173612 35.45034723-8.81666667 72.37013889-13.77604167 110.39201389-14.878125zM527.24548611 860.99305556V695.68055556c37.65451389 1.10208333 74.20694444 6.06145833 109.65729166 14.51076388-26.63368056 84.49305556-68.32916667 139.41354167-109.65729166 150.80173612z m0-195.80347223V527.24548611h137.57673612c-1.10208333 56.75729167-8.265625 108.73888889-19.65381946 153.740625-38.021875-9.18402777-77.32951389-14.69444444-117.92291666-15.79652778z m168.25138889-137.94409722h167.51666667c-3.30625 78.61527777-32.69513889 150.434375-79.53368056 207.55902778-34.34826389-18.91909723-70.71701389-34.34826389-108.92256944-45.92013889 12.49027777-48.67534723 19.8375-103.41215277 20.93958333-161.63888889z m0-30.49097222c-1.10208333-58.22673611-8.44930556-113.14722223-20.75590277-161.82256945 38.20555556-11.571875 74.57430556-27.00104167 108.73888888-45.73645833 46.83854167 56.94097223 76.22743056 128.94375 79.53368056 207.74270833H695.496875z m67.04340277-231.07013889c-30.49097223 16.16388889-62.45138889 29.57256944-96.06493054 39.675-17.81701389-57.49201389-42.98125-104.33055556-72.55381946-135.18888889 65.02291667 15.61284723 123.06597223 49.41006944 168.61875 95.51388889zM428.97638889 170.53784723c-29.57256944 30.67465277-54.553125 77.51319444-72.18645833 134.63784721-33.24618056-10.10243056-65.02291667-23.32743056-95.14652779-39.49131944 45.00173611-45.92013889 102.67743056-79.53368056 167.33298612-95.14652777zM261.45972223 758.13194444c30.12361111-16.16388889 62.08402777-29.38888889 95.14652777-39.49131944 17.81701389 57.30833333 42.79756944 103.96319444 72.37013889 134.82152777-64.65555556-15.61284723-122.33125-49.22638889-167.51666666-95.33020833z m332.46180554 95.69756945c29.75625-30.85833333 54.73680556-77.696875 72.7375-135.37256945 33.61354167 10.10243056 65.57395833 23.51111111 96.06493056 39.675-45.55277777 46.2875-103.77951389 80.08472223-168.80243056 95.69756945z"  /></svg>